<svg width="285" height="51" viewBox="0 0 285 51" fill="none" xmlns="http://www.w3.org/2000/svg">
            <rect y="0.314941" width="50" height="50" rx="10" fill="#4671FF" />
            <path
                d="M19.2964 15.1196V34.3149H15.3545V15.1196H19.2964ZM25.2026 15.1196V18.2178H9.54053V15.1196H25.2026ZM31.4121 15.1196V34.3149H27.457V15.1196H31.4121ZM39.0586 23.3198V26.4048H30.3311V23.3198H39.0586ZM39.9814 15.1196V18.2178H30.3311V15.1196H39.9814Z"
                fill="white" />
            <path
                d="M72.3262 15.5415V33.3149H68.9814V15.5415H72.3262ZM77.8438 15.5415V18.1904H63.5249V15.5415H77.8438ZM85.3755 30.5073V24.416C85.3755 23.9684 85.2982 23.5819 85.1436 23.2563C84.9889 22.9308 84.7529 22.6785 84.4355 22.4995C84.1182 22.3205 83.7153 22.231 83.2271 22.231C82.7957 22.231 82.4173 22.3042 82.0918 22.4507C81.7744 22.5972 81.5303 22.8047 81.3594 23.0732C81.1885 23.3337 81.103 23.6348 81.103 23.9766H77.8682C77.8682 23.4313 77.9984 22.9146 78.2588 22.4263C78.5192 21.9299 78.8895 21.4904 79.3696 21.1079C79.8579 20.7173 80.4398 20.4121 81.1152 20.1924C81.7988 19.9727 82.5638 19.8628 83.4102 19.8628C84.4111 19.8628 85.3022 20.0337 86.0835 20.3755C86.8729 20.7091 87.4914 21.2137 87.939 21.8892C88.3947 22.5646 88.6226 23.415 88.6226 24.4404V30.2021C88.6226 30.8613 88.6632 31.4269 88.7446 31.8989C88.8341 32.3628 88.9644 32.7656 89.1353 33.1074V33.3149H85.8516C85.6969 32.9813 85.5789 32.5581 85.4976 32.0454C85.4162 31.5246 85.3755 31.0119 85.3755 30.5073ZM85.8271 25.2705L85.8516 27.187H83.813C83.3084 27.187 82.8649 27.2399 82.4824 27.3457C82.0999 27.4434 81.7866 27.5898 81.5425 27.7852C81.2983 27.9723 81.1152 28.2002 80.9932 28.4688C80.8711 28.7292 80.8101 29.0262 80.8101 29.3599C80.8101 29.6854 80.8833 29.9784 81.0298 30.2388C81.1844 30.4992 81.4041 30.7067 81.689 30.8613C81.9819 31.0078 82.3237 31.0811 82.7144 31.0811C83.284 31.0811 83.7804 30.9671 84.2036 30.7393C84.6268 30.5033 84.9564 30.2184 85.1924 29.8848C85.4284 29.5511 85.5545 29.2337 85.5708 28.9326L86.4985 30.3242C86.3846 30.6579 86.2137 31.0119 85.9858 31.3862C85.758 31.7606 85.465 32.1105 85.1069 32.436C84.7489 32.7616 84.3175 33.0301 83.813 33.2417C83.3084 33.4533 82.7225 33.5591 82.0552 33.5591C81.2007 33.5591 80.4357 33.3882 79.7603 33.0464C79.0848 32.7046 78.5518 32.2367 78.1611 31.6426C77.7705 31.0485 77.5752 30.373 77.5752 29.6162C77.5752 28.9163 77.7054 28.2979 77.9658 27.7607C78.2262 27.2236 78.6128 26.772 79.1255 26.4058C79.6382 26.0314 80.2729 25.7507 81.0298 25.5635C81.7948 25.3682 82.6696 25.2705 83.6543 25.2705H85.8271ZM98.791 29.7017C98.791 29.425 98.7178 29.1768 98.5713 28.957C98.4248 28.7373 98.1481 28.5379 97.7412 28.3589C97.3424 28.1717 96.7565 27.9967 95.9834 27.834C95.2998 27.6875 94.6691 27.5044 94.0913 27.2847C93.5135 27.0649 93.0171 26.8005 92.6021 26.4912C92.187 26.1738 91.8615 25.8035 91.6255 25.3804C91.3976 24.9491 91.2837 24.4526 91.2837 23.8911C91.2837 23.3459 91.4017 22.8332 91.6377 22.353C91.8737 21.8647 92.2155 21.4375 92.6631 21.0713C93.1107 20.6969 93.6559 20.404 94.2988 20.1924C94.9417 19.9727 95.666 19.8628 96.4717 19.8628C97.5947 19.8628 98.5591 20.0459 99.3647 20.4121C100.179 20.7783 100.801 21.2829 101.232 21.9258C101.664 22.5605 101.879 23.2767 101.879 24.0742H98.6567C98.6567 23.7243 98.5754 23.4069 98.4126 23.1221C98.258 22.8372 98.0179 22.6094 97.6924 22.4385C97.3669 22.2594 96.9559 22.1699 96.4595 22.1699C96.0119 22.1699 95.6335 22.2432 95.3242 22.3896C95.0231 22.5361 94.7952 22.7274 94.6406 22.9634C94.486 23.1994 94.4087 23.4598 94.4087 23.7446C94.4087 23.9562 94.4494 24.1475 94.5308 24.3184C94.6203 24.4811 94.7627 24.6317 94.958 24.77C95.1533 24.9084 95.4178 25.0345 95.7515 25.1484C96.0933 25.2624 96.5124 25.3722 97.0088 25.478C97.9935 25.6733 98.8521 25.9338 99.5845 26.2593C100.325 26.5767 100.903 26.9998 101.318 27.5288C101.733 28.0578 101.94 28.7332 101.94 29.5552C101.94 30.1411 101.814 30.6782 101.562 31.1665C101.31 31.6466 100.944 32.0658 100.463 32.4238C99.9832 32.7819 99.4095 33.0627 98.7422 33.2661C98.0749 33.4614 97.3221 33.5591 96.4839 33.5591C95.2713 33.5591 94.2459 33.3434 93.4077 32.9121C92.5695 32.4727 91.9347 31.9193 91.5034 31.252C91.0721 30.5765 90.8564 29.8766 90.8564 29.1523H93.9448C93.9692 29.665 94.1076 30.076 94.3599 30.3853C94.6121 30.6945 94.9295 30.9183 95.312 31.0566C95.7026 31.1868 96.1136 31.252 96.5449 31.252C97.0332 31.252 97.4442 31.1868 97.7778 31.0566C98.1115 30.9183 98.3638 30.7352 98.5347 30.5073C98.7056 30.2713 98.791 30.0028 98.791 29.7017ZM107.617 14.5527V33.3149H104.394V14.5527H107.617ZM115.893 20.1069L110.144 26.5645L107.031 29.7261L106.005 27.2236L108.41 24.1963L111.999 20.1069H115.893ZM112.597 33.3149L108.508 27.1626L110.656 25.0752L116.333 33.3149H112.597ZM121.203 15.5415V33.3149H117.846V15.5415H121.203ZM128.369 23.2197V25.8687H120.324V23.2197H128.369ZM129.309 15.5415V18.1904H120.324V15.5415H129.309ZM134.765 14.5649V33.3149H131.53V14.5649H134.765ZM137.268 26.8452V26.5889C137.268 25.6204 137.406 24.7293 137.683 23.9155C137.959 23.0936 138.362 22.3815 138.891 21.7793C139.42 21.1771 140.067 20.7091 140.832 20.3755C141.597 20.0337 142.468 19.8628 143.444 19.8628C144.437 19.8628 145.316 20.0337 146.081 20.3755C146.854 20.7091 147.505 21.1771 148.034 21.7793C148.563 22.3815 148.966 23.0936 149.243 23.9155C149.519 24.7293 149.658 25.6204 149.658 26.5889V26.8452C149.658 27.8055 149.519 28.6966 149.243 29.5186C148.966 30.3324 148.563 31.0444 148.034 31.6548C147.505 32.257 146.858 32.7249 146.093 33.0586C145.328 33.3923 144.453 33.5591 143.469 33.5591C142.492 33.5591 141.617 33.3923 140.844 33.0586C140.071 32.7249 139.42 32.257 138.891 31.6548C138.362 31.0444 137.959 30.3324 137.683 29.5186C137.406 28.6966 137.268 27.8055 137.268 26.8452ZM140.49 26.5889V26.8452C140.49 27.423 140.547 27.9642 140.661 28.4688C140.775 28.9733 140.95 29.4168 141.186 29.7993C141.422 30.1818 141.727 30.4829 142.102 30.7026C142.484 30.9142 142.94 31.02 143.469 31.02C143.99 31.02 144.437 30.9142 144.812 30.7026C145.186 30.4829 145.491 30.1818 145.727 29.7993C145.971 29.4168 146.15 28.9733 146.264 28.4688C146.378 27.9642 146.435 27.423 146.435 26.8452V26.5889C146.435 26.0192 146.378 25.4862 146.264 24.9897C146.15 24.4852 145.971 24.0417 145.727 23.6592C145.491 23.2686 145.182 22.9634 144.799 22.7437C144.425 22.5158 143.973 22.4019 143.444 22.4019C142.924 22.4019 142.476 22.5158 142.102 22.7437C141.727 22.9634 141.422 23.2686 141.186 23.6592C140.95 24.0417 140.775 24.4852 140.661 24.9897C140.547 25.4862 140.49 26.0192 140.49 26.5889ZM155.676 30.1411L158.569 20.1069H160.62L160.009 23.5737L157.092 33.3149H155.322L155.676 30.1411ZM154.077 20.1069L156.25 30.1655L156.445 33.3149H154.406L150.939 20.1069H154.077ZM163.305 30.019L165.429 20.1069H168.554L165.112 33.3149H163.073L163.305 30.019ZM160.937 20.1069L163.806 30.0435L164.184 33.3149H162.414L159.472 23.5737L158.874 20.1069H160.937ZM183.996 18.2393L178.93 33.3149H175.378L182.019 15.5415H184.289L183.996 18.2393ZM188.232 33.3149L183.142 18.2393L182.836 15.5415H185.119L191.796 33.3149H188.232ZM188 26.7109V29.3599H178.466V26.7109H188ZM201.098 30.1777V20.1069H204.345V33.3149H201.293L201.098 30.1777ZM201.513 27.4434L202.514 27.4189C202.514 28.306 202.417 29.1239 202.221 29.8726C202.026 30.6213 201.721 31.2723 201.306 31.8257C200.899 32.3709 200.382 32.7982 199.755 33.1074C199.129 33.4085 198.388 33.5591 197.534 33.5591C196.883 33.5591 196.289 33.4696 195.751 33.2905C195.214 33.1034 194.75 32.8145 194.36 32.4238C193.977 32.0251 193.68 31.5164 193.469 30.8979C193.257 30.2713 193.151 29.5186 193.151 28.6396V20.1069H196.374V28.6641C196.374 29.1035 196.423 29.4697 196.521 29.7627C196.626 30.0557 196.769 30.2957 196.948 30.4829C197.135 30.6619 197.351 30.7922 197.595 30.8735C197.847 30.9468 198.116 30.9834 198.4 30.9834C199.182 30.9834 199.796 30.8288 200.244 30.5195C200.699 30.2021 201.025 29.779 201.22 29.25C201.416 28.7129 201.513 28.1107 201.513 27.4434ZM213.452 20.1069V22.4263H205.883V20.1069H213.452ZM207.91 16.8599H211.145V29.5063C211.145 29.897 211.197 30.1981 211.303 30.4097C211.409 30.6213 211.568 30.7637 211.779 30.8369C211.991 30.9102 212.243 30.9468 212.536 30.9468C212.748 30.9468 212.943 30.9346 213.122 30.9102C213.301 30.8857 213.452 30.8613 213.574 30.8369L213.586 33.2539C213.317 33.3434 213.012 33.4167 212.67 33.4736C212.337 33.5306 211.958 33.5591 211.535 33.5591C210.811 33.5591 210.176 33.437 209.631 33.1929C209.086 32.9406 208.662 32.5378 208.361 31.9844C208.06 31.4229 207.91 30.6823 207.91 29.7627V16.8599ZM214.709 26.8452V26.5889C214.709 25.6204 214.847 24.7293 215.124 23.9155C215.401 23.0936 215.804 22.3815 216.333 21.7793C216.861 21.1771 217.508 20.7091 218.273 20.3755C219.038 20.0337 219.909 19.8628 220.886 19.8628C221.879 19.8628 222.757 20.0337 223.522 20.3755C224.296 20.7091 224.947 21.1771 225.476 21.7793C226.005 22.3815 226.407 23.0936 226.684 23.9155C226.961 24.7293 227.099 25.6204 227.099 26.5889V26.8452C227.099 27.8055 226.961 28.6966 226.684 29.5186C226.407 30.3324 226.005 31.0444 225.476 31.6548C224.947 32.257 224.3 32.7249 223.535 33.0586C222.77 33.3923 221.895 33.5591 220.91 33.5591C219.934 33.5591 219.059 33.3923 218.286 33.0586C217.513 32.7249 216.861 32.257 216.333 31.6548C215.804 31.0444 215.401 30.3324 215.124 29.5186C214.847 28.6966 214.709 27.8055 214.709 26.8452ZM217.932 26.5889V26.8452C217.932 27.423 217.989 27.9642 218.103 28.4688C218.216 28.9733 218.391 29.4168 218.627 29.7993C218.863 30.1818 219.169 30.4829 219.543 30.7026C219.925 30.9142 220.381 31.02 220.91 31.02C221.431 31.02 221.879 30.9142 222.253 30.7026C222.627 30.4829 222.932 30.1818 223.168 29.7993C223.413 29.4168 223.592 28.9733 223.706 28.4688C223.819 27.9642 223.876 27.423 223.876 26.8452V26.5889C223.876 26.0192 223.819 25.4862 223.706 24.9897C223.592 24.4852 223.413 24.0417 223.168 23.6592C222.932 23.2686 222.623 22.9634 222.241 22.7437C221.866 22.5158 221.415 22.4019 220.886 22.4019C220.365 22.4019 219.917 22.5158 219.543 22.7437C219.169 22.9634 218.863 23.2686 218.627 23.6592C218.391 24.0417 218.216 24.4852 218.103 24.9897C217.989 25.4862 217.932 26.0192 217.932 26.5889ZM232.653 22.8169V33.3149H229.431V20.1069H232.47L232.653 22.8169ZM232.177 26.2349H231.188C231.188 25.3153 231.298 24.4689 231.518 23.6958C231.746 22.9227 232.08 22.2513 232.519 21.6816C232.958 21.1038 233.5 20.6562 234.143 20.3389C234.794 20.0215 235.546 19.8628 236.401 19.8628C236.995 19.8628 237.54 19.9523 238.037 20.1313C238.533 20.3022 238.96 20.5749 239.318 20.9492C239.685 21.3154 239.965 21.7956 240.161 22.3896C240.356 22.9756 240.454 23.6795 240.454 24.5015V33.3149H237.231V24.8311C237.231 24.2126 237.141 23.7284 236.962 23.3784C236.792 23.0285 236.543 22.7843 236.218 22.646C235.892 22.4995 235.502 22.4263 235.046 22.4263C234.541 22.4263 234.106 22.528 233.74 22.7314C233.382 22.9268 233.085 23.1994 232.849 23.5493C232.621 23.8993 232.45 24.3021 232.336 24.7578C232.23 25.2135 232.177 25.7059 232.177 26.2349ZM240.209 25.6367L238.879 25.8809C238.887 25.0508 239.001 24.2736 239.221 23.5493C239.44 22.8169 239.762 22.1781 240.185 21.6328C240.616 21.0794 241.149 20.6481 241.784 20.3389C242.427 20.0215 243.168 19.8628 244.006 19.8628C244.657 19.8628 245.243 19.9564 245.764 20.1436C246.293 20.3226 246.744 20.6115 247.119 21.0103C247.493 21.4009 247.778 21.9095 247.973 22.5361C248.177 23.1628 248.278 23.9277 248.278 24.8311V33.3149H245.031V24.8188C245.031 24.1759 244.942 23.6836 244.763 23.3418C244.592 23 244.344 22.764 244.018 22.6338C243.693 22.4954 243.31 22.4263 242.871 22.4263C242.423 22.4263 242.032 22.5117 241.699 22.6826C241.373 22.8454 241.097 23.0732 240.869 23.3662C240.649 23.6592 240.482 24.001 240.368 24.3916C240.262 24.7741 240.209 25.1891 240.209 25.6367ZM258.447 30.5073V24.416C258.447 23.9684 258.369 23.5819 258.215 23.2563C258.06 22.9308 257.824 22.6785 257.507 22.4995C257.189 22.3205 256.787 22.231 256.298 22.231C255.867 22.231 255.489 22.3042 255.163 22.4507C254.846 22.5972 254.602 22.8047 254.431 23.0732C254.26 23.3337 254.174 23.6348 254.174 23.9766H250.939C250.939 23.4313 251.07 22.9146 251.33 22.4263C251.59 21.9299 251.961 21.4904 252.441 21.1079C252.929 20.7173 253.511 20.4121 254.187 20.1924C254.87 19.9727 255.635 19.8628 256.481 19.8628C257.482 19.8628 258.374 20.0337 259.155 20.3755C259.944 20.7091 260.563 21.2137 261.01 21.8892C261.466 22.5646 261.694 23.415 261.694 24.4404V30.2021C261.694 30.8613 261.735 31.4269 261.816 31.8989C261.905 32.3628 262.036 32.7656 262.207 33.1074V33.3149H258.923C258.768 32.9813 258.65 32.5581 258.569 32.0454C258.487 31.5246 258.447 31.0119 258.447 30.5073ZM258.898 25.2705L258.923 27.187H256.884C256.38 27.187 255.936 27.2399 255.554 27.3457C255.171 27.4434 254.858 27.5898 254.614 27.7852C254.37 27.9723 254.187 28.2002 254.064 28.4688C253.942 28.7292 253.881 29.0262 253.881 29.3599C253.881 29.6854 253.955 29.9784 254.101 30.2388C254.256 30.4992 254.475 30.7067 254.76 30.8613C255.053 31.0078 255.395 31.0811 255.786 31.0811C256.355 31.0811 256.852 30.9671 257.275 30.7393C257.698 30.5033 258.028 30.2184 258.264 29.8848C258.5 29.5511 258.626 29.2337 258.642 28.9326L259.57 30.3242C259.456 30.6579 259.285 31.0119 259.057 31.3862C258.829 31.7606 258.536 32.1105 258.178 32.436C257.82 32.7616 257.389 33.0301 256.884 33.2417C256.38 33.4533 255.794 33.5591 255.126 33.5591C254.272 33.5591 253.507 33.3882 252.832 33.0464C252.156 32.7046 251.623 32.2367 251.232 31.6426C250.842 31.0485 250.646 30.373 250.646 29.6162C250.646 28.9163 250.777 28.2979 251.037 27.7607C251.298 27.2236 251.684 26.772 252.197 26.4058C252.709 26.0314 253.344 25.7507 254.101 25.5635C254.866 25.3682 255.741 25.2705 256.726 25.2705H258.898ZM270.849 20.1069V22.4263H263.281V20.1069H270.849ZM265.307 16.8599H268.542V29.5063C268.542 29.897 268.595 30.1981 268.701 30.4097C268.806 30.6213 268.965 30.7637 269.177 30.8369C269.388 30.9102 269.641 30.9468 269.934 30.9468C270.145 30.9468 270.34 30.9346 270.52 30.9102C270.699 30.8857 270.849 30.8613 270.971 30.8369L270.983 33.2539C270.715 33.3434 270.41 33.4167 270.068 33.4736C269.734 33.5306 269.356 33.5591 268.933 33.5591C268.208 33.5591 267.574 33.437 267.028 33.1929C266.483 32.9406 266.06 32.5378 265.759 31.9844C265.458 31.4229 265.307 30.6823 265.307 29.7627V16.8599ZM278.93 33.5591C277.929 33.5591 277.03 33.3963 276.232 33.0708C275.435 32.7453 274.755 32.2936 274.194 31.7158C273.64 31.1299 273.213 30.4504 272.912 29.6772C272.619 28.896 272.473 28.0578 272.473 27.1626V26.6743C272.473 25.6571 272.619 24.7334 272.912 23.9033C273.205 23.0651 273.62 22.3449 274.157 21.7427C274.694 21.1405 275.337 20.6766 276.086 20.3511C276.835 20.0256 277.661 19.8628 278.564 19.8628C279.5 19.8628 280.326 20.0215 281.042 20.3389C281.758 20.6481 282.356 21.0876 282.836 21.6572C283.317 22.2269 283.679 22.9105 283.923 23.708C284.167 24.4974 284.289 25.3722 284.289 26.3325V27.6875H273.938V25.4658H281.115V25.2217C281.099 24.709 281.001 24.241 280.822 23.8179C280.643 23.3866 280.367 23.0448 279.992 22.7925C279.618 22.5321 279.134 22.4019 278.54 22.4019C278.059 22.4019 277.64 22.5076 277.282 22.7192C276.932 22.9227 276.639 23.2157 276.403 23.5981C276.175 23.9725 276.005 24.4201 275.891 24.9409C275.777 25.4618 275.72 26.0396 275.72 26.6743V27.1626C275.72 27.716 275.793 28.2287 275.939 28.7007C276.094 29.1727 276.318 29.5837 276.611 29.9336C276.912 30.2754 277.27 30.5439 277.685 30.7393C278.108 30.9264 278.588 31.02 279.125 31.02C279.801 31.02 280.411 30.8898 280.957 30.6294C281.51 30.3608 281.99 29.9661 282.397 29.4453L284.021 31.1299C283.744 31.5368 283.369 31.9274 282.897 32.3018C282.434 32.6761 281.872 32.9813 281.213 33.2173C280.554 33.4451 279.793 33.5591 278.93 33.5591Z"
                fill="#262626" />
        </svg>