<svg width="129" height="26" viewBox="0 0 129 26" fill="none" xmlns="http://www.w3.org/2000/svg">
<path d="M12.5 18.3047L18.9375 22.1901L17.2291 14.8672L22.9166 9.9401L15.4271 9.30469L12.5 2.39844L9.5729 9.30469L2.08331 9.9401L7.77081 14.8672L6.06248 22.1901L12.5 18.3047Z" fill="#C1C1C1"/>
<path d="M38.5 18.3047L44.9375 22.1901L43.2291 14.8672L48.9166 9.9401L41.4271 9.30469L38.5 2.39844L35.5729 9.30469L28.0833 9.9401L33.7708 14.8672L32.0625 22.1901L38.5 18.3047Z" fill="#C1C1C1"/>
<path d="M64.5 18.3047L70.9375 22.1901L69.2291 14.8672L74.9166 9.9401L67.4271 9.30469L64.5 2.39844L61.5729 9.30469L54.0833 9.9401L59.7708 14.8672L58.0625 22.1901L64.5 18.3047Z" fill="#C1C1C1"/>
<path d="M90.5 18.3047L96.9375 22.1901L95.2291 14.8672L100.917 9.9401L93.4271 9.30469L90.5 2.39844L87.5729 9.30469L80.0833 9.9401L85.7708 14.8672L84.0625 22.1901L90.5 18.3047Z" fill="#C1C1C1"/>
<path d="M116.5 18.3047L122.937 22.1901L121.229 14.8672L126.917 9.9401L119.427 9.30469L116.5 2.39844L113.573 9.30469L106.083 9.9401L111.771 14.8672L110.062 22.1901L116.5 18.3047Z" fill="#C1C1C1"/>
</svg>
